<svg fill="#fc7b53" xmlns="http://www.w3.org/2000/svg" viewBox="0 0 375 603">
<svg viewBox="0 0 40 40" id="commend"><g fill="none" fill-rule="evenodd"><path fill="#FC7B53" d="M21 12c-.167-.434-1-1-1-1-.275.437-.767.601-1 1v7H4v-6c0-.843.716-1.562 2-2h6c-1.49.06-2.84-.711-3-2 .06-1.814 1.949-4.528 5-4 2.552.733 4.541 2.943 6 5 1.6-2.094 3.778-4.58 7-5 2.23-.288 4.282 2.198 4 4-.208 1.276-1.582 2.06-3 2h6c1.173.437 1.89 1.156 2 2v6H21v-7zm-7-6c-1.123-.321-1.966.238-3 1 .097.68-.258 1.373 0 2 1.653 1.192 5.452 1.096 8 1-1.202-1.529-2.679-3.07-5-4zm16 3c.726-1.246-1.22-3.714-3-3-2.313 1.075-3.755 2.506-5 4 1.071 0 2.158.023 3 0 1.542-.075 3.965-.16 5-1zM19 36H8c-1.326-.255-2-.907-2-2V20h13v16zm13 0H21V20h13v14c-.47 1.53-1.124 1.745-2 2z"></path></g></svg>
</svg>