<svg fill="#3cabff" xmlns="http://www.w3.org/2000/svg" viewBox="0 0 375 603">
<svg viewBox="0 0 40 40" id="download"><path d="M30 5H10c-2.8 0-5 2.2-5 5v20c0 2.8 2.2 5 5 5h20c2.8 0 5-2.2 5-5V10c0-2.8-2.2-5-5-5zm-3.9 22.7c-.1.2-.3.4-.6.5-4.3 2.8-10.1 1.6-13-2.8-2.8-4.3-1.6-10.2 2.8-13 4.3-2.8 10.2-1.6 13 2.8.2.2.3.5.4.8.1.2 0 .5-.2.7l-8.8 5.7c-.2.2-.6.1-.7-.2l-.5-.7c-.4-.6-.2-1.5.4-1.9l5.6-3.6c.2-.2.3-.5.2-.7l-.1-.1c-2.2-1.8-5.4-2.1-7.9-.4-3.1 2-4 6.1-2 9.2 2 3.1 6.1 4 9.2 2 .6-.4 1.3-.2 1.7.4l.3.7c.1.2.4.5.2.6zm3.1-4.4l-.9.6c-.2.2-.6.1-.7-.2L26.5 22c-.2-.2-.1-.6.2-.7l1.8-1.1c.2-.2.6-.1.7.2l.6.9c.3.6.1 1.5-.6 2z"></path></svg>
</svg>