<svg fill="#ff5f3e" xmlns="http://www.w3.org/2000/svg" viewBox="0 0 48 48" >
<path fill-rule="evenodd" d="M24 0C10.7 0 0 10.7 0 24s10.7 24 24 24 24-10.7 24-24S37.3 0 24 0zm7.6 15H16.4c.1.1.1.2.1.4.4 2.5 3.3 4.3 7.1 4.4 2.4 0 4.8-.6 6.1-1.6.4-.3 1.1-.3 1.4.2.3.5.3 1.1-.2 1.4-1.6 1.3-4.3 2.1-7.1 2.1h-.5c-3.9-.2-7-2-8.3-4.6V32c0 .5.7 1 1.4 1h15.2c.8 0 1.4-.5 1.4-1V16c0-.5-.7-1-1.4-1zM35 32c0 1.7-1.5 3-3.4 3H16.4c-1.9 0-3.4-1.3-3.4-3V16c0-1.4 1-2.5 2.5-2.9h.2c.1-.1.3-.1.4-.1h15.5c1.9 0 3.4 1.3 3.4 3v16z"></path>
</svg>
