<svg width="60" height="10" xmlns="http://www.w3.org/2000/svg"><defs><linearGradient x1="0%" y1="50%" y2="50%" id="a"><stop stop-color="#FFDE00" offset="0%"/><stop stop-color="#FFB000" offset="100%"/></linearGradient></defs><path d="M54.017 8.072l-2.552 1.561c-.476.291-.758.096-.626-.455l.696-2.909-2.273-1.944c-.424-.362-.325-.691.239-.736l2.982-.237L53.63.589c.213-.515.557-.523.774 0l1.146 2.763 2.982.237c.556.044.67.368.24.736l-2.274 1.944.696 2.91c.13.542-.143.75-.626.454l-2.551-1.56zm-48 0L3.465 9.633c-.476.291-.758.096-.626-.455l.696-2.909-2.273-1.944c-.424-.362-.325-.691.239-.736l2.982-.237L5.63.589c.213-.515.557-.523.774 0L7.55 3.352l2.982.237c.556.044.67.368.24.736L8.497 6.269l.696 2.91c.13.542-.143.75-.626.454l-2.551-1.56zm12 0l-2.552 1.561c-.476.291-.758.096-.626-.455l.696-2.909-2.273-1.944c-.424-.362-.325-.691.239-.736l2.982-.237L17.63.589c.213-.515.557-.523.774 0l1.146 2.763 2.982.237c.556.044.67.368.24.736l-2.274 1.944.696 2.91c.13.542-.143.75-.626.454l-2.551-1.56zm12 0l-2.552 1.561c-.476.291-.758.096-.626-.455l.696-2.909-2.273-1.944c-.424-.362-.325-.691.239-.736l2.982-.237L29.63.589c.213-.515.557-.523.774 0l1.146 2.763 2.982.237c.556.044.67.368.24.736l-2.274 1.944.696 2.91c.13.542-.143.75-.626.454l-2.551-1.56zm12 0l-2.552 1.561c-.476.291-.758.096-.626-.455l.696-2.909-2.273-1.944c-.424-.362-.325-.691.239-.736l2.982-.237L41.63.589c.213-.515.557-.523.774 0l1.146 2.763 2.982.237c.556.044.67.368.24.736l-2.274 1.944.696 2.91c.13.542-.143.75-.626.454l-2.551-1.56z" fill="url(#a)" fill-rule="evenodd"/></svg>