<svg xmlns="http://www.w3.org/2000/svg" viewBox="0 0 22 22"><defs><linearGradient id="a" x1="0%" y1="50%" y2="50%"><stop offset="0%" stop-color="#0AF"/><stop offset="100%" stop-color="#0085FF"/></linearGradient></defs><path fill="url(#a)" fill-rule="evenodd" d="M3.929 3.929c3.899-3.9 10.243-3.9 14.142 0 3.899 3.899 3.899 10.243 0 14.142-3.899 3.9-10.243 3.9-14.142 0-3.9-3.899-3.9-10.243 0-14.142zM14.639 7a.363.363 0 0 0-.146.03l-4.39 1.901c-.254.11-.493.264-.701.471a2.23 2.23 0 0 0-.476.712l-1.896 4.38a.363.363 0 0 0 .476.476l4.38-1.896a2.203 2.203 0 0 0 1.183-1.178l1.9-4.39A.363.363 0 0 0 14.64 7zM11 12a1 1 0 1 1 0-2 1 1 0 0 1 0 2z"/></svg>