<svg fill="#4aa5f0" xmlns="http://www.w3.org/2000/svg" viewBox="0 0 375 603">
<svg viewBox="0 0 16 16" id="address"><g fill="none" fill-rule="evenodd"><path fill="none" d="M0 0h16v16H0z"></path><path fill="#4AA5F0" d="M8 2.667A2.667 2.667 0 1 1 8 8a2.667 2.667 0 0 1 0-5.333M2.273 6.509a5.48 5.48 0 0 1-.051-.732 5.778 5.778 0 1 1 11.556 0 5.54 5.54 0 0 1-.085.948 5.704 5.704 0 0 1-.258.999 6.565 6.565 0 0 1-.081.22c-.016.039-.03.078-.047.116C11.932 11.45 8 13.778 8 13.778S3.734 11.273 2.535 7.64a5.756 5.756 0 0 1-.262-1.132zm8.584 6.701c2.516.124 5.143.43 5.143 1.068 0 .901-5.233 1.138-8 1.138-2.768 0-8-.237-8-1.138 0-.639 2.627-.944 5.143-1.068 1.22 1.044 2.3 1.61 2.404 1.663.14.07.296.108.453.108.156 0 .314-.038.454-.109.104-.052 1.184-.618 2.403-1.662z"></path></g></svg>
</svg>