<svg fill="#fc7b53" xmlns="http://www.w3.org/2000/svg" viewBox="0 0 375 603">
<svg viewBox="0 0 16 16" id="point"><g fill="none" fill-rule="evenodd"><path fill="none" d="M0 0h16v16H0z"></path><path fill="#94D94A" d="M2.257.5h11.486a1 1 0 0 1 .998.936l.757 11.728a2 2 0 0 1-1.996 2.129H2.498a2 2 0 0 1-1.996-2.129L1.26 1.436A1 1 0 0 1 2.257.5zm9.658 3.782C11.82 6.452 10.14 8.18 7.95 8.18c-2.202 0-3.925-1.747-4.003-3.933a.594.594 0 0 1 .36-1.075.596.596 0 1 1 .25 1.14c.109 1.82 1.548 3.26 3.393 3.26 1.853 0 3.263-1.455 3.357-3.287a.595.595 0 0 1 .3-1.113.595.595 0 1 1 .307 1.11z"></path></g></svg>
</svg>