<svg fill="#3cabff" xmlns="http://www.w3.org/2000/svg" viewBox="0 0 375 603">
<svg viewBox="0 0 17 18" id="rule"><g fill="#4DA6F0" fill-rule="evenodd"><path d="M10.389 18H2.444a1.5 1.5 0 0 1-1.5-1.5v-15a1.5 1.5 0 0 1 1.5-1.5h12.112a1.5 1.5 0 0 1 1.5 1.5V12h-4.867a.8.8 0 0 0-.8.8V18zM3.978 4a.2.2 0 0 0-.2.2v.6c0 .11.09.2.2.2h9.044a.2.2 0 0 0 .2-.2v-.6a.2.2 0 0 0-.2-.2H3.978zm0 3a.2.2 0 0 0-.2.2v.6c0 .11.09.2.2.2h9.044a.2.2 0 0 0 .2-.2v-.6a.2.2 0 0 0-.2-.2H3.978z"></path><path d="M15.111 13l-3.778 4v-3.6c0-.22.18-.4.4-.4h3.378z"></path></g></svg>
</svg>