<svg xmlns="http://www.w3.org/2000/svg" viewBox="0 0 22 22"><path fill="#818181" d="M16.62 2.727a.75.75 0 0 1-.844 1.24 8.455 8.455 0 0 0-4.095-1.44 8.5 8.5 0 0 0-9.153 7.792 8.499 8.499 0 0 0 7.79 9.153 8.5 8.5 0 0 0 9.154-7.791 8.46 8.46 0 0 0-1.435-5.449.75.75 0 1 1 1.24-.842 9.96 9.96 0 0 1 1.69 6.411c-.442 5.505-5.264 9.609-10.768 9.166-5.505-.442-9.61-5.263-9.166-10.768C1.475 4.694 6.296.59 11.8 1.033c1.75.14 3.398.727 4.819 1.694zM14.638 7c.244 0 .44.254.331.506l-1.9 4.39c-.11.255-.264.494-.471.702a2.23 2.23 0 0 1-.712.476l-4.38 1.895a.363.363 0 0 1-.476-.476l1.895-4.38a2.22 2.22 0 0 1 1.177-1.182l4.391-1.9A.367.367 0 0 1 14.638 7zM12.45 9.55l-1.751.757a.737.737 0 0 0-.237.156.753.753 0 0 0-.156.236l-.758 1.752 1.742-.753a.766.766 0 0 0 .247-.161.733.733 0 0 0 .154-.234l.76-1.754z"/></svg>