<svg xmlns="http://www.w3.org/2000/svg" viewBox="0 0 22 22"><path fill="#818181" d="M7.924 6.273A5.597 5.597 0 0 0 5.48 9.828a5.596 5.596 0 0 0 .787 4.242 5.646 5.646 0 0 0 7.793 1.66 2.188 2.188 0 0 1 3.02.638l.43.663a1.36 1.36 0 0 1-.3 1.798 10 10 0 0 1-.771.555 9.93 9.93 0 0 1-7.523 1.395 9.937 9.937 0 0 1-6.306-4.334C-.393 11.82.926 5.618 5.55 2.615a9.935 9.935 0 0 1 7.523-1.393 9.937 9.937 0 0 1 6.781 5.148c.318.64.12 1.396-.467 1.777l-8.54 5.546c-.632.41-1.478.23-1.89-.401l-.443-.684a2.182 2.182 0 0 1 .641-3.016l5.011-3.255a5.612 5.612 0 0 0-6.242-.064zm6.813 10.507a6.895 6.895 0 0 1-9.519-2.03 6.846 6.846 0 0 1-.96-5.182 6.847 6.847 0 0 1 2.986-4.344 6.869 6.869 0 0 1 8.13.46.892.892 0 0 1-.098 1.422l-5.44 3.534a.932.932 0 0 0-.274 1.287l.444.684a.117.117 0 0 0 .16.034l8.54-5.547c.05-.032.067-.095.035-.16a8.687 8.687 0 0 0-5.928-4.494 8.685 8.685 0 0 0-6.583 1.22c-4.044 2.627-5.198 8.056-2.572 12.1a8.686 8.686 0 0 0 5.517 3.792 8.68 8.68 0 0 0 6.583-1.22 9.01 9.01 0 0 0 .672-.483c.047-.038.057-.102.032-.142l-.43-.662a.938.938 0 0 0-1.295-.269zm5.88-5.517a2.376 2.376 0 0 1-.697 3.284l-.851.553a1.362 1.362 0 0 1-1.882-.401l-1.103-1.7a1.362 1.362 0 0 1 .4-1.882l1.699-1.102a1.357 1.357 0 0 1 1.883.399l.552.85zm-1.6-.168a.107.107 0 0 0-.07-.048.107.107 0 0 0-.083.016l-1.699 1.102a.112.112 0 0 0-.032.154l1.102 1.698c.021.032.056.05.095.05a.108.108 0 0 0 .06-.016l.849-.552a1.126 1.126 0 0 0 .33-1.555l-.551-.849z"/></svg>