<svg xmlns="http://www.w3.org/2000/svg" viewBox="0 0 22 22"><defs><linearGradient id="a" x1="0%" y1="50%" y2="50%"><stop offset="0%" stop-color="#0AF"/><stop offset="100%" stop-color="#0085FF"/></linearGradient></defs><path fill="url(#a)" fill-rule="evenodd" d="M2.75 1.5h16.5a.75.75 0 0 1 .75.75v11.5a6.758 6.758 0 0 1-6.75 6.75H2.75a.75.75 0 0 1-.75-.75V2.25a.75.75 0 0 1 .75-.75zm12 6.5a.75.75 0 0 0 0-1.5h-7.5a.75.75 0 0 0 0 1.5h7.5zm-3.002 5.003a.75.75 0 0 0 0-1.5H7.25a.75.75 0 0 0 0 1.5h4.498z"/></svg>