 <svg xmlns="http://www.w3.org/2000/svg" viewBox="0 0 22 22"><defs><linearGradient id="a" x1="0%" y1="50%" y2="50%"><stop offset="0%" stop-color="#0AF"/><stop offset="100%" stop-color="#0085FF"/></linearGradient></defs><path fill="url(#a)" fill-rule="evenodd" d="M11 1c2.757 0 5 2.243 5 5v1c0 2.757-2.243 5-5 5S6 9.757 6 7V6c0-2.757 2.243-5 5-5zm5.967 10.071A6.76 6.76 0 0 1 21 17.251v3a.75.75 0 0 1-.75.75H1.75a.75.75 0 0 1-.75-.75v-3a6.76 6.76 0 0 1 4.033-6.18.992.992 0 0 1 1.135.263A6.476 6.476 0 0 0 11 13.5c1.919 0 3.642-.84 4.832-2.166a.993.993 0 0 1 1.135-.263z"/></svg>